<svg xmlns="http://www.w3.org/2000/svg" xmlns:xlink="http://www.w3.org/1999/xlink" fill="none" version="1.1" width="54" height="54" viewBox="0 0 54 54"><g><g><path d="M0,40L0,14C0,6.26801,6.26801,0,14,0L40,0C47.732,0,54,6.26801,54,14L54,40C54,47.732,47.732,54,40,54L14,54C6.26801,54,0,47.732,0,40Z" fill="#FFFFFF" fill-opacity="1"/></g><g><path d="M42.0608,42.2368L13.6192,42.2368C12.7216,42.2368,12,41.524,12,40.6352C12,39.7464,12.7216,39.0336,13.443200000000001,39.0336L17.0424,39.0336L22.2608,15.3616L18.3008,15.3616L18.3008,17.6672C18.3008,18.38,17.764,19.0928,16.857599999999998,19.0928C16.136,18.916800000000002,15.5992,18.38,15.5992,17.6672L15.5992,13.2408C15.783999999999999,12.527999,16.3208,12,17.0424,12L38.2856,12C39.0072,12,39.7288,12.5368,39.9048,13.2408L39.9048,17.5C39.9048,18.2128,39.367999999999995,18.916800000000002,38.461600000000004,18.916800000000002C37.739999999999995,18.916800000000002,37.203199999999995,18.3888,37.203199999999995,17.676000000000002L37.203199999999995,15.3704L33.2432,15.3704L38.2856,38.6904L38.2856,39.0424L41.8848,39.0424C42.782399999999996,39.0424,43.504000000000005,39.7552,43.504000000000005,40.644C43.504000000000005,41.5328,42.782399999999996,42.2368,42.0608,42.2368ZM31.624,29.0456L30.0048,29.0456C29.644,29.0456,28.5616,29.2216,28.3856,29.0456C28.2096,28.6936,28.3856,28.3328,28.5616,27.980800000000002C28.7376,27.444000000000003,28.9224,26.740000000000002,29.0984,26.203200000000002L29.82,23.5368C29.82,23.360799999999998,29.82,23.1848,29.644,23.1848C29.468,23.1848,29.2832,23.1848,29.2832,23.360799999999998L23.1584,31.5272C23.1584,31.7032,23.1584,31.8792,23.334400000000002,31.8792L25.8512,31.8792C26.0272,31.8792,26.5728,31.7032,26.7488,31.8792C26.924799999999998,32.0552,26.7488,32.416,26.5728,32.592C26.036,34.1936,25.6752,35.6104,25.3144,37.212C25.3144,37.388000000000005,25.3144,37.564,25.4904,37.564C25.6752,37.564,25.6752,37.564,25.8512,37.388000000000005L31.7912,29.3976C31.8,29.2216,31.8,29.0456,31.624,29.0456ZM40.8024,23.5368C41.339200000000005,23.5368,41.8848,24.064799999999998,41.8848,24.601599999999998C41.8848,25.1384,41.348,25.6664,40.8024,25.6664L37.203199999999995,25.6664C36.666399999999996,25.6664,36.1208,25.1384,36.1208,24.601599999999998C36.1208,24.064799999999998,36.6576,23.5368,37.203199999999995,23.5368L40.8024,23.5368ZM41.7,22.472L35.936,22.472C35.2144,22.472,34.6776,21.944000000000003,34.6776,21.2312C34.6776,20.5184,35.2144,19.9904,35.936,19.9904L41.7,19.9904C42.4216,19.9904,42.9584,20.5184,42.9584,21.2312C42.9672,21.944000000000003,42.4216,22.472,41.7,22.472ZM18.3008,23.721600000000002C18.837600000000002,23.721600000000002,19.383200000000002,24.2584,19.383200000000002,24.7864C19.383200000000002,25.3144,18.8464,25.8512,18.3008,25.8512L14.7016,25.8512C14.1648,25.8512,13.6192,25.3144,13.6192,24.7864C13.6192,24.2496,14.156,23.721600000000002,14.7016,23.721600000000002L18.3008,23.721600000000002ZM20.6416,21.4072C20.465600000000002,22.119999999999997,19.92,22.648,19.383200000000002,22.648L13.6192,22.648C13.0824,22.648,12.5368,22.1112,12.5368,21.4072C12.5368,20.6944,13.0736,20.1664,13.7952,20.1664L19.3744,20.1664C20.104799999999997,20.1664,20.6416,20.703200000000002,20.6416,21.4072Z" fill="#1B5FBF" fill-opacity="1" style="mix-blend-mode:passthrough"/></g></g></svg>